<svg xmlns="http://www.w3.org/2000/svg" width="48" height="48" viewBox="0 0 48 48"><linearGradient id="rhoVD7Z_jDX8ZX50SyyWKa" x1=".546" x2="30.524" y1="4.988" y2="34.966" gradientTransform="rotate(-14.791 23.496 21.497)" gradientUnits="userSpaceOnUse"><stop offset="0" stop-color="#0d61a9"/><stop offset="1" stop-color="#16528c"/></linearGradient><path fill="url(#rhoVD7Z_jDX8ZX50SyyWKa)" d="M31.12,36.117l-18.371,4.85c-1.068,0.282-2.162-0.355-2.444-1.423L3.413,13.439	c-0.282-1.068,0.355-2.162,1.423-2.444l18.371-4.85c1.068-0.282,2.162,0.355,2.444,1.423l6.892,26.106	C32.825,34.741,32.188,35.835,31.12,36.117z"/><path d="M25.651,7.568c-0.282-1.068-1.376-1.705-2.444-1.423L10,9.631V35c0,2.206,1.794,4,4,4h6.201	l10.918-2.883c1.068-0.282,1.705-1.376,1.423-2.444L25.651,7.568z" opacity=".05"/><path d="M25.651,7.568c-0.282-1.068-1.376-1.705-2.444-1.423L11,9.367V35c0,1.655,1.345,3,3,3h9.989	l7.131-1.883c1.068-0.282,1.705-1.376,1.423-2.444L25.651,7.568z" opacity=".07"/><linearGradient id="rhoVD7Z_jDX8ZX50SyyWKb" x1="6.41" x2="36.388" y1="4.41" y2="34.388" gradientUnits="userSpaceOnUse"><stop offset="0" stop-color="#32bdef"/><stop offset="1" stop-color="#1ea2e4"/></linearGradient><path fill="url(#rhoVD7Z_jDX8ZX50SyyWKb)" d="M33,37H14c-1.105,0-2-0.895-2-2V8c0-1.105,0.895-2,2-2h19c1.105,0,2,0.895,2,2v27	C35,36.105,34.105,37,33,37z"/><path d="M33,6H20.779c-0.109,0.224-0.203,0.458-0.269,0.705l-6.979,26.082	c-0.431,1.611,0.192,3.257,1.441,4.212H33c1.105,0,2-0.895,2-2V8C35,6.895,34.105,6,33,6z" opacity=".05"/><path d="M23.196,6c-1.74,0-1.831,1.416-2.081,2.315l-6.391,23.886c-0.077,0.288-0.313,1.424-0.265,1.701	c-0.056,1.029,0.532,2.026,1.467,2.476L20.917,37H33c1.044,0,1.9-0.803,1.984-1.822C34.995,35.12,35,34.881,35,34.82V9.644	c0-0.552-0.448-2.388-1-2.388L23.196,6z" opacity=".07"/><linearGradient id="rhoVD7Z_jDX8ZX50SyyWKc" x1="13.198" x2="43.176" y1="4.391" y2="34.369" gradientTransform="rotate(14.984 23.498 21.495)" gradientUnits="userSpaceOnUse"><stop offset="0" stop-color="#f0f0f0"/><stop offset="1" stop-color="#bbc1c4"/></linearGradient><path fill="url(#rhoVD7Z_jDX8ZX50SyyWKc)" d="M35.233,40.665l-18.354-4.911c-1.067-0.285-1.701-1.382-1.415-2.449l6.979-26.083	c0.285-1.067,1.382-1.701,2.449-1.415l18.354,4.911c1.067,0.285,1.701,1.382,1.415,2.449l-6.979,26.083	C37.397,40.316,36.3,40.95,35.233,40.665z"/><path d="M29.106,24.585c-1.047,3.861-3.762,6.233-3.762,6.233s2.192-0.442,3.861,1.047C29.204,31.865,28.059,28.446,29.106,24.585z"/><path d="M31.461,15.899c-2.977,3.337-8.065,2.994-9.242,7.337c-0.506,1.866,0.596,3.788,2.462,4.294	c2.408,0.653,4.032-1.497,4.032-1.497s0.309,2.674,2.724,3.329c1.866,0.506,3.788-0.596,4.294-2.462	C36.908,22.556,32.344,20.283,31.461,15.899z"/><path d="M25.602,10.758c-0.299,1.103-1.075,1.781-1.075,1.781s0.626-0.126,1.103,0.299C25.63,12.838,25.303,11.861,25.602,10.758z"/><path d="M26.275,8.276c-0.851,0.953-2.304,0.855-2.641,2.096c-0.145,0.533,0.17,1.082,0.703,1.227	c0.688,0.187,1.152-0.428,1.152-0.428s0.088,0.764,0.778,0.951c0.533,0.145,1.082-0.17,1.227-0.703	C27.832,10.178,26.528,9.529,26.275,8.276z"/><path d="M34.322,35.917c-0.299,1.103-1.075,1.781-1.075,1.781s0.626-0.126,1.103,0.299C34.35,37.996,34.023,37.02,34.322,35.917z"/><path d="M34.995,33.435c-0.851,0.953-2.304,0.855-2.641,2.096c-0.145,0.533,0.17,1.082,0.703,1.227	c0.688,0.187,1.152-0.428,1.152-0.428s0.088,0.764,0.778,0.951c0.533,0.145,1.082-0.17,1.227-0.703	C36.551,35.337,35.247,34.687,34.995,33.435z"/></svg>