<svg xmlns="http://www.w3.org/2000/svg" width="48" height="48" viewBox="0 0 48 48"><radialGradient id="r5UBD5MWPSknPNWkfxXmGa" cx="52.516" cy="74.573" r="82.804" gradientUnits="userSpaceOnUse"><stop offset=".339" stop-color="#23d9d6"/><stop offset=".425" stop-color="#22c7da"/><stop offset=".599" stop-color="#1e97e6"/><stop offset=".843" stop-color="#194bf8"/><stop offset=".883" stop-color="#183efb"/></radialGradient><path fill="url(#r5UBD5MWPSknPNWkfxXmGa)" d="M43,8H5c-1.105,0-2,0.895-2,2v28c0,1.105,0.895,2,2,2h38c1.105,0,2-0.895,2-2V10	C45,8.895,44.105,8,43,8z"/><path fill="#fff" d="M7.004,21.5c0-1.022,2.219-4.5,5.996-4.5c6.073,0,6.993,8,11,8c3.069,0,3.967-2,4.5-2	c0.252,0,0.5,0.145,0.5,0.352C29,24.227,26.475,28,23,28c-5.997,0-6.089-8-11-8c-2.632,0-3.837,2-4.5,2	C7.063,22,7.004,21.72,7.004,21.5z"/><linearGradient id="r5UBD5MWPSknPNWkfxXmGb" x1="42.067" x2="32.091" y1="3.072" y2="17.569" gradientUnits="userSpaceOnUse"><stop offset="0" stop-color="#4a4a4a"/><stop offset="1" stop-color="#303030"/></linearGradient><path fill="url(#r5UBD5MWPSknPNWkfxXmGb)" d="M43.203,4.628L39.698,2.36c-0.217-0.14-0.506-0.078-0.646,0.138l-9.804,15.149l4.29,2.776	l9.804-15.149C43.481,5.058,43.419,4.769,43.203,4.628z"/><path fill="#ccc" d="M28.484,23.051l0.763-5.404l4.29,2.776l-4.614,2.911C28.715,23.466,28.449,23.294,28.484,23.051z"/><path fill="#232323" d="M28.638,21.956l-0.155,1.095c-0.034,0.243,0.232,0.415,0.439,0.284l0.935-0.59L28.638,21.956z"/></svg>