<svg xmlns="http://www.w3.org/2000/svg" width="48" height="48" viewBox="0 0 48 48"><radialGradient id="wT2~Zh7kA6EB~aNCouZPxa" cx="23.877" cy="5.441" r="42.34" gradientUnits="userSpaceOnUse"><stop offset="0" stop-color="#4b4b4b"/><stop offset=".531" stop-color="#393939"/><stop offset="1" stop-color="#252525"/></radialGradient><path fill="url(#wT2~Zh7kA6EB~aNCouZPxa)" d="M24,5C13.507,5,5,13.507,5,24s8.507,19,19,19s19-8.507,19-19S34.493,5,24,5z"/><radialGradient id="wT2~Zh7kA6EB~aNCouZPxb" cx="35.796" cy="43.655" r="42.34" gradientUnits="userSpaceOnUse"><stop offset="0" stop-color="#9e6fd9"/><stop offset=".173" stop-color="#aa73c7"/><stop offset=".522" stop-color="#ca7f97"/><stop offset="1" stop-color="#fc914d"/></radialGradient><path fill="url(#wT2~Zh7kA6EB~aNCouZPxb)" d="M38.64,11.891l-6.331,4.558l1.753,2.435l3.845-2.768C39.233,18.443,40,21.129,40,24	c0,8.837-7.163,16-16,16S8,32.837,8,24S15.163,8,24,8c3.137,0,6.055,0.916,8.525,2.477l2.59-1.864C31.987,6.349,28.155,5,24,5	C13.507,5,5,13.507,5,24s8.507,19,19,19s19-8.507,19-19C43,19.398,41.363,15.179,38.64,11.891z"/><radialGradient id="wT2~Zh7kA6EB~aNCouZPxc" cx="24" cy="24" r="8" gradientUnits="userSpaceOnUse"><stop offset=".847"/><stop offset="1" stop-opacity="0"/></radialGradient><circle cx="24" cy="24" r="8" fill="url(#wT2~Zh7kA6EB~aNCouZPxc)" opacity=".15"/><radialGradient id="wT2~Zh7kA6EB~aNCouZPxd" cx="23.978" cy="19.555" r="13.785" gradientUnits="userSpaceOnUse"><stop offset="0" stop-color="#fafafb"/><stop offset="1" stop-color="#c8cdd1"/></radialGradient><path fill="url(#wT2~Zh7kA6EB~aNCouZPxd)" d="M24,17c-3.866,0-7,3.134-7,7c0,3.866,3.134,7,7,7s7-3.134,7-7C31,20.134,27.866,17,24,17z M24,26.5c-1.381,0-2.5-1.119-2.5-2.5c0-1.381,1.119-2.5,2.5-2.5s2.5,1.119,2.5,2.5C26.5,25.381,25.381,26.5,24,26.5z"/></svg>