<svg xmlns="http://www.w3.org/2000/svg"  viewBox="0 0 48 48" width="48px" height="48px"><linearGradient id="WX5n~0dYBett_wj6JwCiNa" x1="4" x2="44" y1="12.5" y2="12.5" gradientUnits="userSpaceOnUse"><stop offset=".176" stop-color="#cdcdcd"/><stop offset=".244" stop-color="#b5b5b5"/><stop offset=".274" stop-color="#b5b5b5"/><stop offset=".308" stop-color="#bdbdbd"/><stop offset=".349" stop-color="#cdcdcd"/><stop offset=".638" stop-color="#cdcdcd"/><stop offset=".668" stop-color="#c5c5c5"/><stop offset=".702" stop-color="#b5b5b5"/><stop offset=".76" stop-color="#b5b5b5"/><stop offset=".78" stop-color="#bdbdbd"/><stop offset=".803" stop-color="#cdcdcd"/></linearGradient><rect width="40" height="3" x="4" y="11" fill="url(#WX5n~0dYBett_wj6JwCiNa)"/><linearGradient id="WX5n~0dYBett_wj6JwCiNb" x1="6.438" x2="25.707" y1="-.499" y2="29.446" gradientUnits="userSpaceOnUse"><stop offset="0" stop-color="#fcfcfc"/><stop offset=".495" stop-color="#f4f4f4"/><stop offset=".946" stop-color="#e8e8e8"/><stop offset="1" stop-color="#e8e8e8"/></linearGradient><path fill="url(#WX5n~0dYBett_wj6JwCiNb)" d="M42,41H6c-1.105,0-2-0.895-2-2V14h40v25C44,40.105,43.105,41,42,41z"/><polygon fill="#f2f2f2" points="16,1 13,4 13,14 16,14"/><polygon fill="#f2f2f2" points="32,1 35,4 35,14 32,14"/><rect width="16" height="3" x="16" y="1" fill="#ccc"/><rect width="6.5" height="6.5" x="17" y="20" fill="#f25022"/><rect width="6.5" height="6.5" x="24.5" y="20" fill="#7fba00"/><rect width="6.5" height="6.5" x="17" y="27.5" fill="#00a4ef"/><rect width="6.5" height="6.5" x="24.5" y="27.5" fill="#ffb900"/><linearGradient id="WX5n~0dYBett_wj6JwCiNc" x1="24" x2="24" y1="37.956" y2="41.21" gradientUnits="userSpaceOnUse"><stop offset="0" stop-color="#e8e8e8"/><stop offset=".332" stop-color="#e0e0e0"/><stop offset=".848" stop-color="#cacaca"/><stop offset="1" stop-color="#c2c2c2"/></linearGradient><path fill="url(#WX5n~0dYBett_wj6JwCiNc)" d="M42,41H6c-1.105,0-2-0.895-2-2v-1h40v1C44,40.105,43.105,41,42,41z"/></svg>