<svg xmlns="http://www.w3.org/2000/svg"  viewBox="0 0 48 48" width="48px" height="48px"><path fill="#184f85" d="M36,40H12v3c0,1.105,0.895,2,2,2h20c1.105,0,2-0.895,2-2V40z"/><rect width="24" height="7" x="12" y="33" fill="#0078d4"/><rect width="24" height="10" x="12" y="23" fill="#1b9de2"/><rect width="24" height="14" x="12" y="9" fill="#35c1f1"/><path fill="#50e6ff" d="M36,9H12V6c0-1.105,0.895-2,2-2h20c1.105,0,2,0.895,2,2V9z"/><circle cx="20" cy="6.5" r=".75" fill="#0c63ad"/><path fill="#0c63ad" d="M27.5,5.75c-0.194,0-4.806,0-5,0c-0.414,0-0.75,0.336-0.75,0.75c0,0.414,0.336,0.75,0.75,0.75	c0.194,0,4.806,0,5,0c0.414,0,0.75-0.336,0.75-0.75C28.25,6.086,27.914,5.75,27.5,5.75z"/></svg>