<svg xmlns="http://www.w3.org/2000/svg" width="48" height="48" viewBox="0 0 48 48"><radialGradient id="zzRUl~RK3zhi1YlAgR3VLa" cx="43.956" cy="41.272" r="48.447" gradientUnits="userSpaceOnUse"><stop offset="0" stop-color="#9e6fd9"/><stop offset=".173" stop-color="#aa73c7"/><stop offset=".522" stop-color="#ca7f97"/><stop offset="1" stop-color="#fc914d"/></radialGradient><path fill="url(#zzRUl~RK3zhi1YlAgR3VLa)" d="M42,7H6C4.895,7,4,7.895,4,9v30c0,1.105,0.895,2,2,2h36c1.105,0,2-0.895,2-2V9	C44,7.895,43.105,7,42,7z"/><radialGradient id="zzRUl~RK3zhi1YlAgR3VLb" cx="8.431" cy="17.365" r="36.063" gradientUnits="userSpaceOnUse"><stop offset="0" stop-color="#4b4b4b"/><stop offset=".531" stop-color="#393939"/><stop offset="1" stop-color="#252525"/></radialGradient><rect width="34" height="25" x="7" y="13" fill="url(#zzRUl~RK3zhi1YlAgR3VLb)"/><polygon fill="#af4e63" points="39 7 35 7 37 10 35 13 39 13 41 10"/><polygon fill="#af4e63" points="30 7 26 7 28 10 26 13 30 13 32 10"/><polygon fill="#af4e63" points="21 7 17 7 19 10 17 13 21 13 23 10"/><polygon fill="#af4e63" points="12 7 8 7 10 10 8 13 12 13 14 10"/><path d="M32.352,23.94l-11.436-7.624c-0.577-0.385-1.314-0.421-1.925-0.093C18.38,16.549,18,17.183,18,17.876	v15.248c0,0.693,0.38,1.327,0.991,1.654C19.269,34.926,19.572,35,19.875,35c0.364,0,0.726-0.106,1.04-0.315l11.436-7.624	c0.523-0.349,0.835-0.932,0.835-1.56C33.187,24.872,32.874,24.289,32.352,23.94z" opacity=".05"/><path d="M20.681,16.737l10.79,7.194c0.689,0.495,1.153,0.938,1.153,1.513c0,0.575-0.224,0.976-0.715,1.334	c-0.371,0.27-11.045,7.364-11.045,7.364c-0.901,0.604-2.364,0.476-2.364-1.499V18.243C18.5,16.238,20.084,16.338,20.681,16.737z" opacity=".07"/><path fill="#fff" d="M19,33.068V17.932c0-0.743,0.828-1.187,1.447-0.774l11.352,7.568c0.553,0.368,0.553,1.18,0,1.549	l-11.352,7.568C19.828,34.254,19,33.811,19,33.068z"/></svg>